<mxfile host="app.diagrams.net" modified="2023-10-25T08:49:47.982Z" agent="Mozilla/5.0 (Macintosh; Intel Mac OS X 10_15_7) AppleWebKit/605.1.15 (KHTML, like Gecko) Version/15.6 Safari/605.1.15" version="22.0.7" etag="czqijlVz53EG-MiR03NL" type="github">
  <diagram name="第 1 页" id="NPxjTCcpZ2S4vHE3KApO">
    <mxGraphModel>
      <root>
        <mxCell id="0" />
        <mxCell id="1" parent="0" />
      </root>
    </mxGraphModel>
  </diagram>
</mxfile>
